# xmcd CD database file
#
# Track frame offsets:
#	150
#	26100
#	48650
#	86895
#	112087
#	133587
#	176752
#
# Disc length: 2750 seconds
#
# Revision: 0
# Processed by: cddbd v1.4PL0 Copyright (c) Steve Scherf et al.
# Submitted via: CDex 1.50
#
DISCID=650abc07
DTITLE=Shigeharu Mukai and Various - Shigeharu Mukai J Quintet featuring Junko Onishi
DYEAR=1994
DGENRE=Jazz
TTITLE0=On Reflection
TTITLE1=Spiritual Calling
TTITLE2=Stretch Out
TTITLE3=Serenity
TTITLE4=Woman Child
TTITLE5=Maldoror
TTITLE6=Berlin
EXTD=YEAR: 1994
EXTT0=
EXTT1=
EXTT2=
EXTT3=
EXTT4=
EXTT5=
EXTT6=
PLAYORDER=
